# Blender v2.92.0 OBJ File: ''
# www.blender.org
mtllib Lid.mtl
o Plane
v -1.000000 0.000000 1.000000
v 1.000000 0.000000 1.000000
v -1.000000 0.000000 -1.000000
v 1.000000 0.000000 -1.000000
v -1.000000 0.161374 -1.000000
v -1.000000 0.161374 1.000000
v 1.000000 0.161374 1.000000
v 1.000000 0.161374 -1.000000
vt 0.000000 0.000000
vt 0.000000 1.000000
vt 1.000000 1.000000
vt 1.000000 0.000000
vt 0.000000 0.000000
vt 1.000000 0.000000
vt 1.000000 1.000000
vt 0.000000 1.000000
vn 0.0000 -1.0000 0.0000
vn 0.0000 1.0000 0.0000
vn -1.0000 0.0000 0.0000
vn 0.0000 0.0000 -1.0000
vn 0.0000 0.0000 1.0000
vn 1.0000 0.0000 0.0000
usemtl None
s off
f 1/1/1 3/2/1 4/3/1 2/4/1
f 6/5/2 7/6/2 8/7/2 5/8/2
f 3/2/3 1/1/3 6/5/3 5/8/3
f 4/3/4 3/2/4 5/8/4 8/7/4
f 1/1/5 2/4/5 7/6/5 6/5/5
f 2/4/6 4/3/6 8/7/6 7/6/6
